<svg id="Group_57162" data-name="Group 57162" xmlns="http://www.w3.org/2000/svg" width="94.395" height="94.338" viewBox="0 0 94.395 94.338">
  <path id="Path_59183" data-name="Path 59183" d="M953.731,266.6c1.045,0,2.024-.016,3,0a1.5,1.5,0,0,1,1.639,1.654q.027,3.045,0,6.091a1.519,1.519,0,0,1-1.718,1.677q-45.443.007-90.886,0c-1.17,0-1.724-.576-1.73-1.763q-.017-2.947,0-5.894c.007-1.224.566-1.757,1.824-1.768.914-.008,1.829,0,2.817,0V222.575c-.923,0-1.86-.025-2.8.007a1.6,1.6,0,0,1-1.741-.988,1.688,1.688,0,0,1,.546-1.937c4.57-4.554,9.114-9.134,13.716-13.655a2.844,2.844,0,0,1,1.815-.689c7.336-.047,14.672-.039,22.009-.016a1.925,1.925,0,0,0,1.608-.686c1.727-1.926,3.526-3.787,5.247-5.718a2.258,2.258,0,0,0,.529-1.365c.039-4.584.023-9.169.024-13.753,0-1.294.416-1.938,1.326-2.065s1.5.332,1.949,1.619a10.24,10.24,0,0,1,5.656,1.082,5.56,5.56,0,0,0,4.306-.028c1.563-.567,2.48.088,2.484,1.742.005,2.358-.036,4.716.018,7.073a1.892,1.892,0,0,1-1.442,2.044,9,9,0,0,1-7.32-.33,4.479,4.479,0,0,0-3.833-.331c0,1.136-.023,2.278.018,3.418a1.322,1.322,0,0,0,.379.743c1.881,2.051,3.762,4.1,5.691,6.11a1.823,1.823,0,0,0,1.2.413q11,.036,22.009,0a2.79,2.79,0,0,1,2.161.9q6.678,6.729,13.4,13.412c.606.6,1.059,1.3.553,2.068a2.333,2.333,0,0,1-1.464.889,21.068,21.068,0,0,1-3,.04Zm-23.655-.049v-.834q0-21.661-.022-43.322a2.068,2.068,0,0,0-.516-1.273q-7.15-7.771-14.352-15.5c-1.307-1.407-2.617-2.812-4.076-4.379a5.335,5.335,0,0,1-.439.67q-8.852,9.543-17.724,19.068a2.2,2.2,0,0,0-.624,1.652q.026,21.415.013,42.831v1.067h6.292V265.4q0-7.859,0-15.718c0-1.439.508-1.95,1.939-1.95q10.611,0,21.223,0c1.5,0,1.992.5,1.993,2q0,7.859,0,15.718v1.1Zm-58.112-43.93v43.9h17.176v-43.9Zm61.324,0v43.9h17.177v-43.9Zm-66.068,50.2h87.967v-3.023H867.221Zm32.93-64.285a1.9,1.9,0,0,0-.366-.1c-6.284,0-12.568-.013-18.852.015a1.609,1.609,0,0,0-.981.49q-4.953,4.9-9.867,9.849c-.165.165-.3.365-.521.647,6.762,0,13.371.009,19.98-.025a1.689,1.689,0,0,0,1.035-.567c2.426-2.57,4.826-5.165,7.229-7.755C898.577,210.258,899.336,209.42,900.15,208.531Zm22.053-.1c.329.379.528.621.74.85,2.936,3.168,5.883,6.325,8.8,9.511a1.846,1.846,0,0,0,1.516.66c6.218-.023,12.436-.014,18.654-.014h1c-.235-.271-.329-.395-.438-.5-3.353-3.357-6.7-6.721-10.079-10.051a1.866,1.866,0,0,0-1.2-.434c-6.021-.027-12.043-.019-18.064-.019Zm-20.37,42.468v15.632h7.723V250.894Zm18.766.05h-7.743v15.6H920.6Zm1.545-58.526V187.9a9.756,9.756,0,0,1-5.953-1.028,3.952,3.952,0,0,0-3.333-.179v4.37a21.751,21.751,0,0,1,2.9.251,23.746,23.746,0,0,1,2.756.962A5.1,5.1,0,0,0,922.144,192.418Z" transform="translate(-864.02 -181.69)" fill="#d8a03e"/>
  <path id="Path_59184" data-name="Path 59184" d="M1071.68,341.465a7.86,7.86,0,1,1-7.905,7.786A7.8,7.8,0,0,1,1071.68,341.465Zm4.666,7.924a4.709,4.709,0,1,0-4.748,4.644A4.793,4.793,0,0,0,1076.346,349.389Z" transform="translate(-1024.449 -310.01)" fill="#d8a03e"/>
  <path id="Path_59185" data-name="Path 59185" d="M1045.226,454.679c-1.243,0-2.486.012-3.729,0a1.52,1.52,0,0,1-1.71-1.679q-.025-3.041,0-6.083a1.492,1.492,0,0,1,1.629-1.658q3.876-.027,7.752,0a1.5,1.5,0,0,1,1.614,1.675q.024,3.041,0,6.083a1.523,1.523,0,0,1-1.728,1.663C1047.778,454.69,1046.5,454.679,1045.226,454.679Zm2.35-3.187v-3.025h-4.6v3.025Z" transform="translate(-1005.174 -393.356)" fill="#d8a03e"/>
  <path id="Path_59186" data-name="Path 59186" d="M1117.171,454.691c-1.243,0-2.486.009-3.729,0-1.19-.011-1.76-.559-1.768-1.722q-.021-2.992,0-5.985c.008-1.164.577-1.713,1.769-1.718q3.729-.015,7.458,0c1.222.005,1.766.568,1.771,1.818q.013,2.894,0,5.788c-.006,1.284-.555,1.812-1.871,1.82C1119.591,454.7,1118.381,454.691,1117.171,454.691Zm2.343-6.229h-4.632v3.01h4.632Z" transform="translate(-1062.91 -393.368)" fill="#d8a03e"/>
  <path id="Path_59187" data-name="Path 59187" d="M925.539,413.326c1.21,0,2.42-.007,3.631,0,1.249.009,1.809.549,1.817,1.773q.017,2.943,0,5.887a1.54,1.54,0,0,1-1.726,1.765q-3.778.019-7.556,0c-1.16-.006-1.71-.582-1.717-1.772q-.016-2.943,0-5.887c.007-1.222.567-1.757,1.822-1.766S924.3,413.326,925.539,413.326Zm-2.345,3.189v3.025h4.6v-3.025Z" transform="translate(-908.963 -367.722)" fill="#d8a03e"/>
  <path id="Path_59188" data-name="Path 59188" d="M925.41,486.623c-1.243,0-2.486.013-3.729,0a1.519,1.519,0,0,1-1.7-1.689q-.024-3.041,0-6.083a1.491,1.491,0,0,1,1.638-1.649q3.876-.026,7.752,0a1.474,1.474,0,0,1,1.6,1.586c.023,2.06.02,4.121,0,6.181a1.5,1.5,0,0,1-1.639,1.651C928.027,486.639,926.718,486.623,925.41,486.623Zm-2.243-3.2h4.6v-3.015h-4.6Z" transform="translate(-908.954 -419.012)" fill="#d8a03e"/>
  <path id="Path_59189" data-name="Path 59189" d="M925.5,541.084c1.243,0,2.486-.01,3.729,0a1.54,1.54,0,0,1,1.744,1.746q.019,2.992,0,5.985a1.518,1.518,0,0,1-1.7,1.692q-3.827.021-7.654,0a1.493,1.493,0,0,1-1.642-1.647q-.027-3.09,0-6.181a1.478,1.478,0,0,1,1.6-1.591C922.882,541.066,924.191,541.084,925.5,541.084Zm2.278,6.242v-3.036h-4.59v3.036Z" transform="translate(-908.949 -470.325)" fill="#d8a03e"/>
  <path id="Path_59190" data-name="Path 59190" d="M1236.987,413.323c1.243,0,2.486-.009,3.729,0,1.189.011,1.762.558,1.77,1.719q.022,2.992,0,5.985c-.008,1.16-.583,1.716-1.77,1.721q-3.729.015-7.458,0c-1.222-.005-1.765-.568-1.771-1.818q-.013-2.894,0-5.788c.006-1.289.549-1.812,1.868-1.819C1234.567,413.318,1235.777,413.323,1236.987,413.323Zm-2.337,6.206h4.632v-2.99h-4.632Z" transform="translate(-1159.14 -367.719)" fill="#d8a03e"/>
  <path id="Path_59191" data-name="Path 59191" d="M1237,486.623c-1.276,0-2.551.013-3.827,0a1.519,1.519,0,0,1-1.693-1.7q-.023-3.041,0-6.083a1.491,1.491,0,0,1,1.646-1.641q3.876-.025,7.752,0a1.475,1.475,0,0,1,1.594,1.594q.034,3.09,0,6.181a1.5,1.5,0,0,1-1.647,1.643C1239.549,486.639,1238.273,486.623,1237,486.623Zm2.259-3.176v-3.059h-4.579v3.059Z" transform="translate(-1159.127 -419.012)" fill="#d8a03e"/>
  <path id="Path_59192" data-name="Path 59192" d="M1236.962,550.514c-1.276,0-2.551.015-3.827,0a1.5,1.5,0,0,1-1.661-1.628q-.03-3.09,0-6.181a1.494,1.494,0,0,1,1.675-1.612q3.827-.022,7.654,0a1.5,1.5,0,0,1,1.662,1.626q.03,3.09,0,6.181a1.5,1.5,0,0,1-1.677,1.614C1239.513,550.527,1238.237,550.514,1236.962,550.514Zm2.324-6.236h-4.613V547.3h4.613Z" transform="translate(-1159.121 -470.325)" fill="#d8a03e"/>
</svg>
