<svg xmlns="http://www.w3.org/2000/svg" width="82.595" height="79.332" viewBox="0 0 82.595 79.332">
  <g id="Group_57257" data-name="Group 57257" transform="translate(-658 -3946)">
    <path id="Path_59178" data-name="Path 59178" d="M374.819,319.7c-1.214,0-2.289.016-3.365,0-1.189-.023-1.863-.621-1.832-1.582.03-.917.681-1.44,1.844-1.461.949-.017,1.9-.015,2.848-.027a1.512,1.512,0,0,0,.314-.119c-.272-4.812-.547-9.669-.832-14.7a32.654,32.654,0,0,1-3.3-.032,2.555,2.555,0,0,1-1.6-.722c-.761-.919-.023-2.178,1.269-2.282.553-.045,1.113-.012,1.67-.013h1.778c-.282-4.97-.559-9.85-.842-14.838-1.1,0-2.135.008-3.174,0-1.344-.013-1.809-.362-2-1.644q-.4-2.716-.692-5.448c-.121-1.139.4-1.775,1.555-1.782q7.172-.049,14.345,0a1.445,1.445,0,0,1,1.6,1.483,1.5,1.5,0,0,1-1.685,1.51c-3.832.015-7.664.006-11.5.006h-1.173l.4,2.779h75.436l.431-2.779h-1.1c-3.537,0-7.075.007-10.612,0a1.572,1.572,0,0,1-1.754-1.463c-.028-.878.607-1.469,1.669-1.545.228-.017.458-.009.688-.009h4.127c2.653,0,5.306-.005,7.959,0,1.868,0,2.343.514,2.134,2.381q-.278,2.485-.672,4.956c-.2,1.224-.607,1.539-1.852,1.557-1.074.016-2.149,0-3.3,0l-.851,14.838c.937,0,1.837-.009,2.736,0a4.859,4.859,0,0,1,1.165.1,1.347,1.347,0,0,1,1.065,1.546,1.429,1.429,0,0,1-1.518,1.374c-1.17.057-2.345.015-3.618.015-.284,4.967-.563,9.848-.848,14.847,1.1,0,2.077-.006,3.05,0,1.291.01,1.978.552,1.965,1.536s-.7,1.5-2,1.511c-1.012.009-2.023,0-3.186,0-.394,6.9-.784,13.74-1.184,20.735h4.167c.884,0,1.77-.032,2.652.016a1.47,1.47,0,0,1,1.52,1.477,1.5,1.5,0,0,1-1.469,1.539,7.218,7.218,0,0,1-.883.018q-38.174,0-76.347,0a5.4,5.4,0,0,1-1.076-.051,1.421,1.421,0,0,1-1.287-1.583,1.4,1.4,0,0,1,1.394-1.385,20.6,20.6,0,0,1,2.061-.029c1.569,0,3.139,0,4.871,0C375.6,333.527,375.215,326.682,374.819,319.7Zm47.429,20.682V325.213H394.12v15.168h5.8v-1.11q0-4.764,0-9.528c0-1.582.461-2.055,2.035-2.058q6.383-.012,12.767,0c1.544,0,2.065.53,2.068,2.072.007,3.176,0,6.352,0,9.528v1.1ZM378.2,325.2a1.674,1.674,0,0,0-.058.333c.261,4.738.534,9.475.781,14.214.03.577.293.7.8.694,1.964-.019,3.929-.007,5.893-.007h5.43V325.2Zm60.035.016H425.345v15.169h12.011C437.647,335.334,437.937,330.321,438.231,325.22Zm-61.14-18.451.572,9.82h10.619v-9.82Zm46.087.026H405.286v9.81h7.353c-.063-.4-.124-.753-.171-1.1a4.639,4.639,0,0,1,4.413-5.179c.752-.022,1.508.026,2.258-.021a1.451,1.451,0,0,0,.853-.336C421.032,308.973,422.033,307.942,423.178,306.795Zm-38.7-17.879v9.773h10.706v-9.773Zm13.858,9.762h10.736v-9.737H398.336Zm-6.942,17.915h10.7v-9.805h-10.7Zm-15.438-30.658h1.191c16.269,0,32.538-.033,48.806.05,1.7.009,2.471-.877,3.427-1.976H375.77Zm1.007,17.744h1.362c15.584,0,31.169-.024,46.753.038,1.517.006,2.105-.915,3-1.81H376.787Zm61.5-19.751c-1.4,0-2.605-.057-3.8.027a2.452,2.452,0,0,0-1.438.586c-2.848,2.756-5.753,5.465-8.425,8.386-1.674,1.829-3.427,2.935-5.949,2.471a1.215,1.215,0,0,0-.294,0,1.675,1.675,0,0,0-1.771,1.7,1.586,1.586,0,0,0,1.772,1.659c1.408.029,2.819.061,4.223-.017a2.389,2.389,0,0,0,1.431-.6q6.8-6.681,13.533-13.427C437.944,284.515,438.124,284.3,438.461,283.929Zm-1.283,17.854c-1.466,0-2.676-.052-3.879.026a2.288,2.288,0,0,0-1.35.562c-2.885,2.807-5.831,5.564-8.546,8.531-1.633,1.784-3.346,2.82-5.785,2.385a1.621,1.621,0,0,0-.392,0,1.7,1.7,0,0,0-1.773,1.705,1.6,1.6,0,0,0,1.786,1.649c1.407.029,2.817.061,4.22-.015a2.385,2.385,0,0,0,1.439-.583c4.524-4.456,9.011-8.949,13.506-13.434C436.607,302.408,436.8,302.194,437.178,301.783Zm2.283,2.238L427,316.581h11.73C438.977,312.375,439.217,308.236,439.462,304.021Zm-11.207-5.3a1.245,1.245,0,0,0,.267.042c3.5,0,7-.013,10.493.018.693.006.8-.314.823-.885.1-2.154.243-4.306.36-6.459.089-1.639.163-3.28.251-5.085Zm-34.091,21.025v2.311h28.1v-2.311Zm19.819-21.029c-.041-.292-.069-.542-.112-.791a4.631,4.631,0,0,1,3.846-5.444,22.7,22.7,0,0,1,2.645-.057c.254-.007.595.022.744-.122,1.111-1.074,2.183-2.189,3.338-3.362H412.165v9.777Zm-37.9-9.8.548,9.793H381.4v-9.793Zm26.858,51.381h3.82v-9.485h-3.82Zm6.914-.017h3.839V330.8h-3.839ZM391.067,319.76h-13.1v2.3h13.1Zm47.384.019h-13.1v2.265h13.1Z" transform="translate(291.109 3681.838)" fill="#161615"/>
    <path id="Path_59179" data-name="Path 59179" d="M480.742,227.19c.879-2.192,1.667-4.2,2.487-6.188.434-1.052,1.394-1.482,2.173-.9a2,2,0,0,1,.731,1.365c.06,3.537.04,7.075.029,10.613a1.476,1.476,0,1,1-2.936.03,17.469,17.469,0,0,0-.162-2.676,7.136,7.136,0,0,1-.759,1.727,3.1,3.1,0,0,1-1.548,1.132,1.508,1.508,0,0,1-1.647-1.119,5.608,5.608,0,0,0-.832-1.53c0,.714.007,1.428,0,2.141-.014,1.178-.595,1.918-1.5,1.934s-1.525-.718-1.53-1.9c-.014-3.341,0-6.682-.006-10.024,0-.887.209-1.663,1.216-1.858.991-.192,1.5.4,1.838,1.24C479.072,223.119,479.867,225.048,480.742,227.19Z" transform="translate(204.095 3726.158)" fill="#0c3431"/>
    <path id="Path_59180" data-name="Path 59180" d="M544.928,229.856c-2.921-.172-2.921-.172-3.919,2.438-.058.153-.108.31-.179.456a1.48,1.48,0,1,1-2.747-1.1c1.287-3.559,2.567-7.121,3.943-10.646a2.216,2.216,0,0,1,1.393-1.135c.746-.17,1.238.459,1.492,1.154q1.937,5.285,3.852,10.579a1.446,1.446,0,0,1-.854,2,1.425,1.425,0,0,1-1.933-.98C545.606,231.714,545.281,230.792,544.928,229.856Z" transform="translate(153.711 3726.161)" fill="#0c3431"/>
    <path id="Path_59181" data-name="Path 59181" d="M652.737,230.8c1.1,0,2.111-.014,3.116,0,1.295.022,1.961.578,1.923,1.571-.036.929-.72,1.441-1.951,1.445-1.407,0-2.813.008-4.22,0-1.291-.009-1.9-.572-1.9-1.826q-.024-5.1,0-10.209c0-1.09.626-1.817,1.5-1.829s1.514.7,1.524,1.8c.024,2.617.009,5.235.009,7.853Z" transform="translate(63.984 3726.066)" fill="#0c3431"/>
    <path id="Path_59182" data-name="Path 59182" d="M605.224,230.8c1.1,0,2.106-.013,3.114,0,1.256.021,2.011.63,1.97,1.558-.04.9-.779,1.454-1.972,1.459-1.44.005-2.881.012-4.321,0-1.19-.012-1.779-.543-1.788-1.723q-.04-5.206,0-10.412a1.541,1.541,0,0,1,1.482-1.727c.881,0,1.509.727,1.514,1.815.012,2.619,0,5.239,0,7.858C605.224,229.981,605.224,230.335,605.224,230.8Z" transform="translate(102.12 3726.068)" fill="#0c3431"/>
  </g>
</svg>
