<svg xmlns="http://www.w3.org/2000/svg" width="96.924" height="95.64" viewBox="0 0 96.924 95.64">
  <g id="Group_57258" data-name="Group 57258" transform="translate(-894 -3929)">
    <g id="Group_57159" data-name="Group 57159" transform="translate(894 3929)">
      <path id="Path_59147" data-name="Path 59147" d="M-1203.349,313.879v46.847h14.29v-35.8c-.071-.038-.1-.065-.125-.065-3.1.025-3.288-1.072-3.185-3.529.04-.948-.01-1.9.017-2.849a1.969,1.969,0,0,1,1.95-2.039c.228-.018.458-.008.688-.008q15.181,0,30.361,0c1.981,0,2.668.674,2.682,2.632.008,1.081.013,2.162,0,3.243-.024,1.777-.725,2.466-2.52,2.509-.258.006-.517.028-.834.046v35.95h5.527c.328,0,.656.013.983,0,.819-.035,1.388.322,1.378,1.158-.009.781-.58,1.118-1.337,1.123q-.442,0-.884,0h-92.458c-.327,0-.655.006-.982-.008-.774-.036-1.266-.439-1.232-1.219.031-.732.53-1.074,1.266-1.072,2.162,0,4.323,0,6.485,0h1.445V313.882c-.659,0-1.3.019-1.947,0a2.106,2.106,0,0,1-2.213-2.133c-.045-1.636-.042-3.276,0-4.912a2.118,2.118,0,0,1,1.844-2.1,5.283,5.283,0,0,1,.977-.062q19.6,0,39.2,0a4.854,4.854,0,0,1,.975.074,2.06,2.06,0,0,1,1.769,2.142q.028,2.407,0,4.815a2.057,2.057,0,0,1-2.144,2.176C-1201.989,313.9-1202.608,313.879-1203.349,313.879Zm-34.018.068v46.787h31.585V313.947Zm74.886,13.479v-2.552h-24.134v35.814h24.124v-2.557h-1.243c-4.814,0-9.627.007-14.441,0a2.063,2.063,0,0,1-2.343-2.353c-.013-1.179,0-2.358,0-3.537,0-1.993.651-2.644,2.647-2.646q7.171,0,14.343,0h1.051V347.07h-1.134q-7.27,0-14.539,0a2.1,2.1,0,0,1-2.365-2.352c-.015-1.212-.006-2.423,0-3.635.006-1.878.739-2.617,2.612-2.618q7.171-.005,14.343,0h1.071v-2.442h-3.809c-3.9,0-7.794.009-11.69,0-1.721-.006-2.508-.775-2.524-2.418-.013-1.31-.02-2.62,0-3.93a2.032,2.032,0,0,1,2.256-2.239c2.652-.007,5.3,0,7.957,0Zm-39.094-20.386h-40.047v4.434h40.047Zm11.583,15.419h30.94V318.84h-30.94Zm27.512,11.188v-3.837h-15.65v3.837Zm.025,11.056v-3.844h-15.663V344.7Zm-15.71,11.091h15.667V352h-15.667Z" transform="translate(1249.037 -279.788)" fill="#d8a03e"/>
      <path id="Path_59148" data-name="Path 59148" d="M-1101.015,195.691c0,1.052.016,2.061,0,3.069s-.425,1.511-1.178,1.469c-.935-.052-1.188-.7-1.184-1.5a30.925,30.925,0,0,1,.091-3.234,2.423,2.423,0,0,1,2.481-2.182c.913-.019,1.827,0,2.9,0,0-1.016,0-1.981,0-2.945,0-.884-.027-1.769.009-2.652a2.692,2.692,0,0,1,2.94-2.833c.719-.009,1.438,0,2.308,0,0-1.334,0-2.629,0-3.924,0-1.9.712-2.642,2.581-2.647q6.728-.016,13.457,0c1.889,0,2.609.741,2.614,2.622,0,1.272,0,2.543,0,3.943.774,0,1.482,0,2.19,0a2.707,2.707,0,0,1,3.048,3.012c.026,1.571,0,3.144.01,4.715,0,.192.036.383.068.7.857,0,1.7-.006,2.539,0a2.563,2.563,0,0,1,2.852,2.862c.039,2.455.011,4.912.011,7.368,0,1.6,0,3.209,0,4.814,0,.791-.2,1.485-1.172,1.469s-1.116-.709-1.115-1.506c.008-3.9-.014-7.794.019-11.691.006-.759-.19-1.02-.986-1.018q-16.8.035-33.594.019C-1100.386,195.617-1100.64,195.659-1101.015,195.691Zm5.478-2.472h24.484c0-1.744-.031-3.411.014-5.075.02-.726-.205-.963-.944-.953-2.812.038-5.626.015-8.439.015q-7.065,0-14.13,0c-.424,0-.984-.172-.985.577C-1095.537,189.58-1095.537,191.373-1095.537,193.219Zm19.172-12.558h-13.88v4.157h13.88Z" transform="translate(1132.057 -178.301)" fill="#d8a03e"/>
      <path id="Path_59149" data-name="Path 59149" d="M-1200.636,654.831h-46.28c-.327,0-.655,0-.982-.011a1.05,1.05,0,0,1-1.144-1.089,1.076,1.076,0,0,1,1.175-1.162c.229-.008.458-.01.688-.01h93.15c.1,0,.2,0,.295,0,1.052.019,1.628.432,1.617,1.157s-.566,1.114-1.648,1.114Q-1177.2,654.833-1200.636,654.831Z" transform="translate(1249.043 -559.191)" fill="#d8a03e"/>
      <path id="Path_59150" data-name="Path 59150" d="M-874.374,239.381a3.278,3.278,0,0,0-3.5-3.624c-1.534.033-1.534.033-2.009-1.486a3.986,3.986,0,0,0-3.423-2.823,3.9,3.9,0,0,0-4.049,2.159c-.045.087-.088.175-.127.265a1.119,1.119,0,0,1-1.571.74c-.788-.335-.824-1-.538-1.733a6.31,6.31,0,0,1,6.186-3.821,6.416,6.416,0,0,1,5.442,3.647,1.559,1.559,0,0,0,.988.718,5.725,5.725,0,0,1,5.009,6.124c-.084,1.587-.682,2.162-2.264,2.163q-5.306,0-10.611,0c-1.042,0-1.619-.418-1.623-1.151s.577-1.172,1.609-1.174q4.716-.008,9.432,0Z" transform="translate(960.487 -219.05)" fill="#d8a03e"/>
      <path id="Path_59151" data-name="Path 59151" d="M-1191.016,232.118h1.211q4.763,0,9.525,0c.771,0,1.385.254,1.382,1.154,0,.836-.569,1.126-1.308,1.128q-5.646.012-11.293,0a1.641,1.641,0,0,1-1.755-1.491,5.712,5.712,0,0,1,4.933-6.768,1.175,1.175,0,0,0,1.043-.777,6.013,6.013,0,0,1,5.751-3.556,6.086,6.086,0,0,1,5.693,3.666c.355.733.393,1.4-.43,1.84-.655.351-1.206.055-1.667-.852a4.044,4.044,0,0,0-4.155-2.337,3.984,3.984,0,0,0-3.421,3.084,1.4,1.4,0,0,1-1.721,1.254A3.379,3.379,0,0,0-1191.016,232.118Z" transform="translate(1204.332 -213.245)" fill="#d8a03e"/>
      <path id="Path_59152" data-name="Path 59152" d="M-825.529,220.259a3.411,3.411,0,0,0-3.709-3.7c-1.194.108-1.479-.08-1.764-1.161a4,4,0,0,0-5.479-2.859c-.061.023-.125.04-.184.068a1.175,1.175,0,0,1-1.751-.49c-.342-.661.011-1.261.9-1.664a6.333,6.333,0,0,1,8.214,2.894,1.564,1.564,0,0,0,1.285.954,5.657,5.657,0,0,1,4.843,6.326,1.8,1.8,0,0,1-1.989,1.935c-.883.026-1.768.028-2.651-.005-.781-.029-1.36-.384-1.3-1.253.054-.812.613-1.074,1.377-1.044C-827.021,220.28-826.305,220.259-825.529,220.259Z" transform="translate(919.359 -203.676)" fill="#d8a03e"/>
      <path id="Path_59153" data-name="Path 59153" d="M-1230.323,212.726c.8,0,1.516-.012,2.228,0,.924.019,1.561.511,1.485,1.2-.092.827-.633,1.144-1.444,1.119-.915-.028-1.833,0-2.749-.009a1.611,1.611,0,0,1-1.691-1.326,5.707,5.707,0,0,1,4.764-6.877,1.3,1.3,0,0,0,1.213-.847,6.341,6.341,0,0,1,8.335-2.99c.737.336,1.152.822.832,1.607s-.972.814-1.719.535c-2.731-1.02-4.964.129-5.72,2.954-.254.948-.874,1.075-1.713,1.035a3.413,3.413,0,0,0-3.7,2.539A7.922,7.922,0,0,0-1230.323,212.726Z" transform="translate(1235.889 -197.676)" fill="#d8a03e"/>
      <path id="Path_59154" data-name="Path 59154" d="M-978.41,309.022c-1.375,0-2.749-.013-4.124.005-.776.01-1.3-.309-1.337-1.1s.512-1.191,1.258-1.2c2.847-.022,5.695-.018,8.542,0a1.141,1.141,0,0,1,1.292,1.178c-.011.762-.513,1.136-1.312,1.123C-975.53,309-976.97,309.022-978.41,309.022Z" transform="translate(1036.076 -281.435)" fill="#d8a03e"/>
      <path id="Path_59155" data-name="Path 59155" d="M-1184.522,622.421c-1.208,0-2.416.007-3.624,0-.987-.008-1.5-.411-1.468-1.166.043-.875.625-1.15,1.4-1.152,2.448,0,4.9,0,7.345,0,.785,0,1.353.3,1.432,1.138.068.719-.515,1.175-1.463,1.183C-1182.106,622.43-1183.314,622.421-1184.522,622.421Z" transform="translate(1201.314 -533.122)" fill="#d8a03e"/>
      <path id="Path_59156" data-name="Path 59156" d="M-862.879,622.416c-1.273,0-2.547,0-3.82,0-.765,0-1.308-.335-1.327-1.117-.02-.842.555-1.2,1.349-1.2q3.722-.011,7.443,0c.78,0,1.378.306,1.367,1.177s-.6,1.151-1.389,1.145C-860.464,622.409-861.672,622.416-862.879,622.416Z" transform="translate(943.037 -533.116)" fill="#d8a03e"/>
      <path id="Path_59157" data-name="Path 59157" d="M-1023.752,622.4q-1.861,0-3.722,0c-.765,0-1.294-.339-1.312-1.129s.513-1.179,1.264-1.184q3.819-.027,7.639,0c.747.005,1.28.38,1.26,1.184s-.548,1.128-1.31,1.128Z" transform="translate(1072.148 -533.106)" fill="#d8a03e"/>
      <path id="Path_59158" data-name="Path 59158" d="M-1104.219,620.085c1.211,0,2.423-.011,3.634,0,.959.012,1.5.463,1.444,1.21-.07.867-.645,1.117-1.435,1.113-2.422-.013-4.845,0-7.267-.008-.947,0-1.534-.47-1.458-1.193.089-.84.659-1.135,1.449-1.129C-1106.641,620.092-1105.43,620.085-1104.219,620.085Z" transform="translate(1136.817 -533.108)" fill="#d8a03e"/>
      <path id="Path_59159" data-name="Path 59159" d="M-943.267,622.411H-947c-.771,0-1.284-.343-1.293-1.145s.525-1.166,1.278-1.171q3.781-.021,7.562,0c.761,0,1.307.379,1.3,1.159,0,.835-.572,1.174-1.386,1.163C-940.779,622.4-942.023,622.412-943.267,622.411Z" transform="translate(1007.5 -533.112)" fill="#d8a03e"/>
      <path id="Path_59160" data-name="Path 59160" d="M-1001.318,355.779c-.981,0-1.963-.008-2.944,0-.808.009-1.393-.34-1.394-1.164s.59-1.17,1.393-1.168c2,.005,3.99,0,5.986,0,.78,0,1.384.287,1.381,1.164s-.591,1.163-1.38,1.163Q-999.8,355.777-1001.318,355.779Z" transform="translate(1053.571 -318.968)" fill="#d8a03e"/>
      <path id="Path_59161" data-name="Path 59161" d="M-1001.268,400.307c1.013,0,2.027.007,3.04,0,.767-.007,1.289.3,1.314,1.112s-.526,1.181-1.26,1.19c-2.092.028-4.184.031-6.275,0a1.122,1.122,0,0,1-1.23-1.233,1.1,1.1,0,0,1,1.273-1.068C-1003.36,400.318-1002.314,400.307-1001.268,400.307Z" transform="translate(1053.592 -356.598)" fill="#d8a03e"/>
      <path id="Path_59162" data-name="Path 59162" d="M-1001.374,542.569c-1.013,0-2.027-.009-3.04,0a1.1,1.1,0,0,1-1.266-1.077,1.124,1.124,0,0,1,1.238-1.225q3.138-.047,6.277,0c.732.01,1.286.366,1.251,1.194-.034.806-.552,1.117-1.321,1.109C-999.281,542.56-1000.328,542.569-1001.374,542.569Z" transform="translate(1053.593 -468.99)" fill="#d8a03e"/>
      <path id="Path_59163" data-name="Path 59163" d="M-1001.258,447c1.012,0,2.024,0,3.036,0,.746,0,1.3.291,1.314,1.114s-.54,1.158-1.275,1.166c-2.056.023-4.112.018-6.169.007-.744,0-1.322-.349-1.325-1.134,0-.838.581-1.166,1.384-1.158C-1003.282,447.012-1002.27,447-1001.258,447Z" transform="translate(1053.588 -394.102)" fill="#d8a03e"/>
      <path id="Path_59164" data-name="Path 59164" d="M-1001.263,495.991h-3.134c-.776,0-1.289-.381-1.285-1.155a1.1,1.1,0,0,1,1.231-1.121c2.121-.017,4.243-.023,6.365.007a1.057,1.057,0,0,1,1.176,1.153,1.076,1.076,0,0,1-1.218,1.109c-1.044.013-2.089,0-3.134,0Z" transform="translate(1053.592 -431.607)" fill="#d8a03e"/>
      <path id="Path_59165" data-name="Path 59165" d="M-1245.981,622.416c-.622,0-1.244.015-1.865,0-.7-.021-1.2-.462-1.1-1.1.068-.433.587-1.093.956-1.129a20.838,20.838,0,0,1,4.107.011c.347.035.811.715.891,1.158.11.613-.383,1.017-1.027,1.051S-1245.327,622.415-1245.981,622.416Z" transform="translate(1248.975 -533.117)" fill="#d8a03e"/>
      <path id="Path_59166" data-name="Path 59166" d="M-784.562,622.356c-.622,0-1.245.026-1.865-.008a1.062,1.062,0,0,1-1.112-1.121,1.048,1.048,0,0,1,1.071-1.164c1.274-.058,2.552-.051,3.827-.007a1.079,1.079,0,0,1,1.126,1.129,1.1,1.1,0,0,1-1.183,1.168C-783.319,622.371-783.941,622.357-784.562,622.356Z" transform="translate(878.395 -533.06)" fill="#d8a03e"/>
      <path id="Path_59167" data-name="Path 59167" d="M-1173.671,524.391c0-1.211-.014-2.422,0-3.633a1.944,1.944,0,0,1,2.032-2.151q3.237-.087,6.478,0a1.964,1.964,0,0,1,2.053,2.148q.045,3.682,0,7.364a2.009,2.009,0,0,1-2.243,2.148c-2.062.008-4.124.011-6.185,0a1.973,1.973,0,0,1-2.135-2.141C-1173.686,526.879-1173.671,525.635-1173.671,524.391Zm2.394-3.462v6.958h5.776v-6.958Z" transform="translate(1188.514 -451.576)" fill="#d8a03e"/>
      <path id="Path_59168" data-name="Path 59168" d="M-1173.675,450.483c0-1.178-.01-2.357,0-3.535a1.965,1.965,0,0,1,2.055-2.231q3.238-.082,6.479,0a1.961,1.961,0,0,1,2.032,2.166c.027,2.455.031,4.91,0,7.364a1.993,1.993,0,0,1-2.166,2.127q-3.142.018-6.284,0a1.96,1.96,0,0,1-2.11-2.066C-1173.7,453.036-1173.675,451.76-1173.675,450.483Zm2.4-3.453v6.954h5.766V447.03Z" transform="translate(1188.519 -392.236)" fill="#d8a03e"/>
      <path id="Path_59169" data-name="Path 59169" d="M-1173.671,376.627c0-1.211-.013-2.422,0-3.633a1.945,1.945,0,0,1,2.026-2.157q3.237-.084,6.479,0a1.963,1.963,0,0,1,2.058,2.143q.046,3.682,0,7.365a2.013,2.013,0,0,1-2.238,2.156c-2.062.009-4.124.012-6.186,0a1.977,1.977,0,0,1-2.14-2.138C-1173.687,379.114-1173.671,377.87-1173.671,376.627Zm2.4-3.47v6.937h5.787v-6.937Z" transform="translate(1188.514 -332.899)" fill="#d8a03e"/>
      <path id="Path_59170" data-name="Path 59170" d="M-1088.841,524.482c0,1.243.018,2.487-.006,3.729a1.9,1.9,0,0,1-2.092,2.055q-3.14.02-6.28,0a1.871,1.871,0,0,1-2.116-1.939c-.064-2.582-.061-5.168-.005-7.751a1.862,1.862,0,0,1,2-1.968q3.236-.08,6.475,0a1.9,1.9,0,0,1,2.017,2.145C-1088.825,522-1088.84,523.239-1088.841,524.482Zm-2.385,3.425v-6.939H-1097v6.939Z" transform="translate(1128.846 -451.578)" fill="#d8a03e"/>
      <path id="Path_59171" data-name="Path 59171" d="M-1088.84,376.741c0,1.211.015,2.421,0,3.631a1.924,1.924,0,0,1-2.122,2.129q-3.14.019-6.281,0a1.88,1.88,0,0,1-2.093-1.967q-.088-3.874,0-7.752a1.869,1.869,0,0,1,2.027-1.945c2.158-.046,4.318-.05,6.476.006a1.894,1.894,0,0,1,1.993,2.071c0,.065,0,.131,0,.2Q-1088.839,374.925-1088.84,376.741Zm-2.367-3.551H-1097v6.9h5.791Z" transform="translate(1128.847 -332.904)" fill="#d8a03e"/>
      <path id="Path_59172" data-name="Path 59172" d="M-1088.735,450.738c0,1.243.021,2.487,0,3.729a1.886,1.886,0,0,1-2.024,2.022q-3.238.027-6.477,0a1.79,1.79,0,0,1-1.958-1.774c-.069-2.712-.06-5.427.005-8.14a1.678,1.678,0,0,1,1.706-1.7c2.319-.067,4.643-.076,6.962-.008a1.782,1.782,0,0,1,1.784,1.947C-1088.713,448.121-1088.735,449.43-1088.735,450.738Zm-8.148-3.6v6.973h5.761v-6.973Z" transform="translate(1128.737 -392.349)" fill="#d8a03e"/>
    </g>
  </g>
</svg>
