<svg xmlns="http://www.w3.org/2000/svg" width="54.84" height="84.42" viewBox="0 0 54.84 84.42">
  <g id="Group_57259" data-name="Group 57259" transform="translate(-1159 -3941)">
    <path id="Path_59173" data-name="Path 59173" d="M-591.253,307.443a24.082,24.082,0,0,1-3.661-.971,9.023,9.023,0,0,1-5.728-8.786q-.078-18.834,0-37.669a13.8,13.8,0,0,1,14.017-13.769c1.949-.024,3.9,0,6.05,0-.429-2.827-.842-5.543-1.256-8.268-2.408,0-4.8-.1-7.17.04-1.272.076-1.93,1.16-2.4,2.29-.665,1.606-1.405,2.1-2.414,1.681s-1.192-1.35-.555-2.887a6.483,6.483,0,0,1,6.607-4.445c9.549,0,19.1.028,28.647-.015,3.6-.016,5.823,2.141,6.849,5.417a1.468,1.468,0,0,1-.871,1.961,1.421,1.421,0,0,1-2.058-.8c-.879-3.061-3.066-3.673-5.856-3.421-1.118.1-2.256-.018-3.381.041-.281.015-.75.3-.787.516-.439,2.575-.812,5.161-1.224,7.893,2.164,0,4.22,0,6.277,0a13.829,13.829,0,0,1,8.831,2.84,13.22,13.22,0,0,1,5.426,10.764c.037,12.481-.082,24.964.063,37.443a9.6,9.6,0,0,1-8.727,9.936c-.184.017-.368.039-.7.075.181.388.314.711.477,1.016,1.415,2.647,2.84,5.289,4.251,7.938.648,1.217.467,2.147-.479,2.614-.919.454-1.68.1-2.337-1.1-.541-.987-1.013-2.017-1.626-2.957a1.7,1.7,0,0,0-1.173-.733c-11.391-.039-22.782-.026-34.173-.047a1.145,1.145,0,0,0-1.2.752c-.51,1.044-1.085,2.058-1.648,3.075-.63,1.138-1.489,1.477-2.378.961-.848-.492-1.028-1.355-.455-2.435,1.495-2.816,3.009-5.622,4.513-8.433C-591.413,307.8-591.34,307.626-591.253,307.443Zm42.108-22.907V262.472h-48.142v22.065Zm-48.239,3.358c0,3.332-.016,6.556,0,9.778.024,3.8,2.453,6.3,6.262,6.31q17.865.05,35.729,0a6.047,6.047,0,0,0,6.332-6.41c.021-2.93.007-5.861,0-8.791,0-.287-.049-.573-.078-.885Zm.09-28.72h48.08A10.265,10.265,0,0,0-559,249.547c-9.512-.07-19.024-.024-28.537-.009a8.434,8.434,0,0,0-1.78.241C-593.65,250.735-597.285,255-597.295,259.174Zm40.172,51.647c-.61-1.151-1.1-2.159-1.681-3.11a1.22,1.22,0,0,0-.909-.431q-13.532-.034-27.063-.009c-.273,0-.689.06-.8.237-.622,1.036-1.171,2.115-1.816,3.312Zm-11.3-72.942H-578.58c.383,2.552.758,5.032,1.127,7.514.08.537.255.875.917.863,2.028-.038,4.058.007,6.085-.037.283-.006.77-.292.807-.51C-569.2,243.127-568.829,240.534-568.427,237.879Z" transform="translate(1759.686 3706.359)" fill="#161615"/>
    <path id="Path_59174" data-name="Path 59174" d="M-563.508,481.948a4.97,4.97,0,0,1,4.927,4.951,5.046,5.046,0,0,1-5.033,5,5.078,5.078,0,0,1-4.94-4.987A4.991,4.991,0,0,1-563.508,481.948Zm-.1,3.213a1.689,1.689,0,0,0-1.669,1.845,1.648,1.648,0,0,0,1.77,1.618,1.683,1.683,0,0,0,1.676-1.834A1.692,1.692,0,0,0-563.611,485.161Z" transform="translate(1734.815 3514.945)" fill="#0c3431"/>
    <path id="Path_59175" data-name="Path 59175" d="M-424.173,486.965a5.016,5.016,0,0,1-4.965,4.929,5.018,5.018,0,0,1-4.951-5.056,4.927,4.927,0,0,1,5.082-4.889A4.913,4.913,0,0,1-424.173,486.965Zm-3.177-.055a1.779,1.779,0,0,0-1.708-1.75,1.779,1.779,0,0,0-1.855,1.718,1.765,1.765,0,0,0,1.708,1.743A1.775,1.775,0,0,0-427.35,486.91Z" transform="translate(1630.74 3514.945)" fill="#0c3431"/>
    <path id="Path_59176" data-name="Path 59176" d="M-521.433,315.792c3.382,0,6.766-.041,10.146.037a2.779,2.779,0,0,1,1.821.817,1.449,1.449,0,0,1-.82,2.253,4.3,4.3,0,0,1-1.327.162q-9.865.014-19.73.007c-.15,0-.3,0-.451,0-1.265-.041-2.031-.658-2.036-1.637s.757-1.626,2.025-1.631C-528.348,315.782-524.89,315.792-521.433,315.792Z" transform="translate(1707.94 3643.557)" fill="#0c3431"/>
  </g>
</svg>
