<svg xmlns="http://www.w3.org/2000/svg" width="100.666" height="96.932" viewBox="0 0 100.666 96.932">
  <path id="Path_59177" data-name="Path 59177" d="M-205.646,269.817a2.3,2.3,0,0,1,2.1-.965c2.881.032,5.763.012,8.645.012h1.129v-9.339c-1.013,0-2.015.054-3.008-.022a2.269,2.269,0,0,1-1.495-.511,1.933,1.933,0,0,1-.3-1.666,2.2,2.2,0,0,1,1.487-.989,21.383,21.383,0,0,1,3.172-.044V244.336c-.56-.063-1.111-.083-1.643-.193a5.992,5.992,0,0,1-4.941-5.883,17.845,17.845,0,0,1,.092-3.134,5.86,5.86,0,0,1,6.016-5.2c.13,0,.26-.016.533-.034,0-.7-.009-1.411,0-2.117a4.172,4.172,0,0,1,4.02-4.133,4.151,4.151,0,0,1,4.437,3.894c.044.746.007,1.5.007,2.318H-151.6c0-.573-.009-1.179,0-1.785a4.206,4.206,0,0,1,3.914-4.252,4.14,4.14,0,0,1,4.569,3.744c.1.8.094,1.612.139,2.473.554.025,1.039.044,1.523.07a5.833,5.833,0,0,1,5.565,5.55,18.914,18.914,0,0,1-.1,4.015,5.933,5.933,0,0,1-5.73,4.761c-.388.018-.778,0-1.243,0v12.031c1.157,0,2.324-.006,3.492,0,1.241.008,1.913.582,1.905,1.609-.007,1.008-.617,1.543-1.833,1.562-1.171.018-2.342,0-3.576,0v9.342h18.029V231.772c-1.13-.254-2.289-.436-3.4-.776-6.279-1.919-9.976-6.36-11.829-12.453a31.594,31.594,0,0,1-.249-17.413c1.775-6.867,4.019-13.538,8.079-19.425a22.52,22.52,0,0,1,4.29-4.668c3.169-2.567,6.565-2.419,9.783.094a22.171,22.171,0,0,1,5.543,6.81,59.869,59.869,0,0,1,7.571,22.915,26.949,26.949,0,0,1-2.656,15.266,16.517,16.517,0,0,1-13.821,9.428v37.315h3.036c1.408,0,2.817-.027,4.224.014a1.542,1.542,0,0,1,1.653,1.574,1.555,1.555,0,0,1-1.595,1.632,8.747,8.747,0,0,1-.883.017q-44.009,0-88.019.009a2.644,2.644,0,0,1-2.426-.917Zm80.7-41.488a4.59,4.59,0,0,0,.065-.526c0-5.6.013-11.2-.019-16.793a1.751,1.751,0,0,0-.5-1.079c-1.919-1.969-3.888-3.889-5.81-5.855a1.516,1.516,0,0,1,.728-2.7,2.335,2.335,0,0,1,1.613.646c1.316,1.207,2.537,2.517,3.992,3.985,0-.6,0-.908,0-1.219,0-2.128-.008-4.256,0-6.383.007-1.162.616-1.85,1.586-1.839.951.011,1.551.711,1.586,1.855.008.262,0,.524,0,.786v16.16c.4-.373.642-.581.866-.8.884-.875,1.738-1.782,2.651-2.625a1.463,1.463,0,0,1,2.119.029,1.551,1.551,0,0,1,.128,2.129,6.676,6.676,0,0,1-.6.643c-1.5,1.506-3.037,2.983-4.492,4.534a2.526,2.526,0,0,0-.639,1.513c-.069,2.191-.032,4.385-.027,6.579,0,.306.04.611.064.95a13.031,13.031,0,0,0,10.122-6.27,23.8,23.8,0,0,0,3.153-10.2,31.019,31.019,0,0,0-1.4-12.184c-1.661-5.865-3.726-11.578-7.252-16.612a20.253,20.253,0,0,0-3.85-3.986,3.9,3.9,0,0,0-4.762-.105,12.942,12.942,0,0,0-3.956,4.03c-3.955,5.92-6.271,12.517-7.924,19.383a27.746,27.746,0,0,0,.82,16.3C-134.69,224.15-130.957,227.614-124.949,228.329Zm-43.269,4.744c-8.546,0-17.092-.016-25.638.027a4.349,4.349,0,0,0-2.3.617c-1.65,1.11-1.679,5.6-.027,6.708a4.69,4.69,0,0,0,2.49.635q25.491.053,50.982.026c.229,0,.459.009.687-.007a2.8,2.8,0,0,0,2.814-3c.007-.491,0-.982,0-1.474,0-2.568-.975-3.531-3.571-3.531Zm16.351,23.182V244.333h-33.424v11.921Zm-33.447,12.724h33.47v-9.244h-33.47Zm-5.342-24.678v11.917h2.054V244.3Zm44.312,11.932V244.319h-2.025v11.914Zm-44.3,3.46v9.272h2.037v-9.272Zm44.307,9.315v-9.3h-2v9.3Zm-42.2-39.12c0-.728.006-1.346,0-1.963-.008-.661-.412-1.154-.995-1.071a1.624,1.624,0,0,0-1.107.949,7.789,7.789,0,0,0-.05,2.084Zm40.14-.038h2.122c0-.7,0-1.321,0-1.941a1,1,0,0,0-1.012-1.091,1,1,0,0,0-1.1,1.013C-148.446,228.476-148.4,229.129-148.4,229.85Z" transform="translate(205.646 -175.178)" fill="#d8a03e"/>
</svg>
