<svg id="Group_57212" data-name="Group 57212" xmlns="http://www.w3.org/2000/svg" xmlns:xlink="http://www.w3.org/1999/xlink" width="196.43" height="66.456" viewBox="0 0 196.43 66.456">
  <defs>
    <clipPath id="clip-path">
      <rect id="Rectangle_2235" data-name="Rectangle 2235" width="196.43" height="66.456" transform="translate(0 0)" fill="none"/>
    </clipPath>
  </defs>
  <g id="Group_57211" data-name="Group 57211" clip-path="url(#clip-path)">
    <path id="Path_59216" data-name="Path 59216" d="M20.681,50.771a4.314,4.314,0,0,1,2.28.63,4.717,4.717,0,0,1,2.281,4.12,4.828,4.828,0,0,1-.62,2.42,4.733,4.733,0,0,1-1.661,1.733,4.252,4.252,0,0,1-2.28.641H16.762v5.92h-2.39V50.771Zm-.043,7.247a1.852,1.852,0,0,0,1.085-.343,2.531,2.531,0,0,0,.784-.9,2.6,2.6,0,0,0,.3-1.249,2.5,2.5,0,0,0-.641-1.745,2,2,0,0,0-1.527-.707H16.762v4.949Z" fill="#213a76"/>
    <path id="Path_59217" data-name="Path 59217" d="M45.677,55.7a4.431,4.431,0,0,1-.83,2.585,4.991,4.991,0,0,1-2.159,1.767l3.61,6.208-2.9-.023-3.276-5.81H36.577v5.81h-2.39V50.771h6.6a5.008,5.008,0,0,1,4.173,2.3,4.706,4.706,0,0,1,.719,2.629m-5.29-2.629h-3.81v5.059h4.429a1.967,1.967,0,0,0,1.648-.751,2.691,2.691,0,0,0,.589-1.7,2.352,2.352,0,0,0-.841-1.911,3.064,3.064,0,0,0-2.015-.7" fill="#213a76"/>
    <path id="Path_59218" data-name="Path 59218" d="M69.212,58.5a8.654,8.654,0,0,1-.554,3.126,7.524,7.524,0,0,1-1.582,2.529,7.4,7.4,0,0,1-2.414,1.691,7.964,7.964,0,0,1-6.1,0,7.239,7.239,0,0,1-2.414-1.691,7.646,7.646,0,0,1-1.573-2.529,9.127,9.127,0,0,1,0-6.252,7.666,7.666,0,0,1,1.573-2.529,7.236,7.236,0,0,1,2.414-1.69,7.952,7.952,0,0,1,6.1,0,7.4,7.4,0,0,1,2.414,1.69,7.543,7.543,0,0,1,1.582,2.529,8.658,8.658,0,0,1,.554,3.126m-2.435,0a6.139,6.139,0,0,0-.664-2.883,5.193,5.193,0,0,0-1.826-2.01,5.221,5.221,0,0,0-5.359,0,5.086,5.086,0,0,0-1.816,2.01,6.691,6.691,0,0,0,0,5.766,5.072,5.072,0,0,0,1.816,2.01,5.215,5.215,0,0,0,5.359,0,5.162,5.162,0,0,0,1.826-2.021,6.154,6.154,0,0,0,.664-2.872" fill="#213a76"/>
    <path id="Path_59219" data-name="Path 59219" d="M80.57,50.771l5.069,8.24,5.16-8.24h2.213V66.235h-2.39V59.894q0-1.391.055-2.639t.189-2.485L86.3,61.795H84.843l-4.45-7q.134,1.239.177,2.475t.043,2.628v6.341h-2.39V50.771Z" fill="#213a76"/>
    <path id="Path_59220" data-name="Path 59220" d="M117.213,58.5a8.654,8.654,0,0,1-.554,3.126,7.524,7.524,0,0,1-1.582,2.529,7.4,7.4,0,0,1-2.414,1.691,7.964,7.964,0,0,1-6.1,0,7.239,7.239,0,0,1-2.414-1.691,7.646,7.646,0,0,1-1.573-2.529,9.127,9.127,0,0,1,0-6.252,7.666,7.666,0,0,1,1.573-2.529,7.236,7.236,0,0,1,2.414-1.69,7.952,7.952,0,0,1,6.1,0,7.4,7.4,0,0,1,2.414,1.69,7.544,7.544,0,0,1,1.582,2.529,8.658,8.658,0,0,1,.554,3.126m-2.435,0a6.139,6.139,0,0,0-.664-2.883,5.193,5.193,0,0,0-1.826-2.01,5.221,5.221,0,0,0-5.359,0,5.086,5.086,0,0,0-1.816,2.01,6.691,6.691,0,0,0,0,5.766,5.072,5.072,0,0,0,1.816,2.01,5.215,5.215,0,0,0,5.359,0,5.162,5.162,0,0,0,1.826-2.021,6.154,6.154,0,0,0,.664-2.872" fill="#213a76"/>
    <path id="Path_59221" data-name="Path 59221" d="M128.505,66.235V53.069h-4.34v-2.3h11.2v2.3H130.9V66.235Z" fill="#213a76"/>
    <path id="Path_59222" data-name="Path 59222" d="M150.91,66.235h-7.4V64.026h2.5V52.98h-2.5V50.771h7.4V52.98h-2.5V64.026h2.5Z" fill="#213a76"/>
    <path id="Path_59223" data-name="Path 59223" d="M174.2,58.5a8.654,8.654,0,0,1-.554,3.126,7.524,7.524,0,0,1-1.582,2.529,7.4,7.4,0,0,1-2.414,1.691,7.964,7.964,0,0,1-6.1,0,7.239,7.239,0,0,1-2.414-1.691,7.646,7.646,0,0,1-1.573-2.529,9.128,9.128,0,0,1,0-6.252,7.666,7.666,0,0,1,1.573-2.529,7.236,7.236,0,0,1,2.414-1.69,7.952,7.952,0,0,1,6.1,0,7.4,7.4,0,0,1,2.414,1.69,7.543,7.543,0,0,1,1.582,2.529A8.658,8.658,0,0,1,174.2,58.5m-2.435,0a6.139,6.139,0,0,0-.664-2.883,5.193,5.193,0,0,0-1.826-2.01,5.221,5.221,0,0,0-5.359,0,5.086,5.086,0,0,0-1.816,2.01,6.691,6.691,0,0,0,0,5.766,5.072,5.072,0,0,0,1.816,2.01,5.215,5.215,0,0,0,5.359,0,5.162,5.162,0,0,0,1.826-2.021,6.154,6.154,0,0,0,.664-2.872" fill="#213a76"/>
    <path id="Path_59224" data-name="Path 59224" d="M194.039,50.771h2.39V66.235h-2.191l-9.011-11.8q.133,1.349.254,2.684t.122,2.684v6.429h-2.391V50.771h2.147l9.012,12.04q-.2-1.613-.265-3.479t-.067-3.48Z" fill="#213a76"/>
    <path id="Path_59225" data-name="Path 59225" d="M28.244,14.4a9.231,9.231,0,0,1,4.463,1.1,8.9,8.9,0,0,1,3.273,2.986,7.6,7.6,0,0,1,1.231,4.247,7.746,7.746,0,0,1-1.272,4.344,9.25,9.25,0,0,1-3.378,3.083,9.579,9.579,0,0,1-4.65,1.144H18.82V41.545h-4.5V14.4ZM27.7,27.273a4.832,4.832,0,0,0,2.4-.62A5.012,5.012,0,0,0,31.874,25a4.09,4.09,0,0,0,.666-2.268,3.756,3.756,0,0,0-.666-2.172A4.882,4.882,0,0,0,30.1,19.012a5.077,5.077,0,0,0-2.4-.582H18.82v8.843Z" fill="#213a76"/>
    <path id="Path_59226" data-name="Path 59226" d="M62.65,41.545H46.387V37.55h5.878V18.392H46.387V14.4H62.65v3.995H56.769V37.55H62.65Z" fill="#213a76"/>
    <path id="Path_59227" data-name="Path 59227" d="M73.95,14.4H94.676V18.43H78.454V25.6H92.381v4.034H78.454v7.873H94.676v4.033H73.95Z" fill="#213a76"/>
    <path id="Path_59228" data-name="Path 59228" d="M129.119,22.929a7.524,7.524,0,0,1-1.708,4.79,9.7,9.7,0,0,1-4.378,3.121l7.5,10.743-5.545-.038-6.965-10.123h-7.964V41.545h-4.5V14.4h14.26a9.919,9.919,0,0,1,4.5,1.066,9.059,9.059,0,0,1,3.461,3.007,7.66,7.66,0,0,1,1.334,4.459m-10.257-4.5h-8.8v8.959h9.508a5.162,5.162,0,0,0,2.565-.62,4.484,4.484,0,0,0,1.708-1.648,4.334,4.334,0,0,0,.607-2.23,3.8,3.8,0,0,0-.752-2.328,4.966,4.966,0,0,0-2.023-1.57,6.882,6.882,0,0,0-2.814-.563" fill="#213a76"/>
    <path id="Path_59229" data-name="Path 59229" d="M164.193,22.929a7.524,7.524,0,0,1-1.708,4.79,9.709,9.709,0,0,1-4.379,3.121l7.5,10.743-5.546-.038L153.1,31.422h-7.965V41.545h-4.5V14.4h14.261a9.918,9.918,0,0,1,4.5,1.066,9.051,9.051,0,0,1,3.461,3.007,7.654,7.654,0,0,1,1.335,4.459m-10.258-4.5h-8.8v8.959h9.508a5.166,5.166,0,0,0,2.566-.62,4.484,4.484,0,0,0,1.708-1.648,4.333,4.333,0,0,0,.606-2.23,3.8,3.8,0,0,0-.752-2.328,4.963,4.963,0,0,0-2.022-1.57,6.887,6.887,0,0,0-2.815-.563" fill="#213a76"/>
    <path id="Path_59230" data-name="Path 59230" d="M175.7,14.4h20.726V18.43H180.207V25.6h13.927v4.034H180.207v7.873h16.222v4.033H175.7Z" fill="#213a76"/>
    <path id="Path_59231" data-name="Path 59231" d="M30.951,4.933V0H0V30.951H4.943V4.933Z" fill="#b5a37c"/>
  </g>
</svg>
