<svg id="Group_57221" data-name="Group 57221" xmlns="http://www.w3.org/2000/svg" xmlns:xlink="http://www.w3.org/1999/xlink" width="150" height="240.316" viewBox="0 0 150 240.316">
  <defs>
    <clipPath id="clip-path">
      <rect id="Rectangle_2240" data-name="Rectangle 2240" width="150" height="240.316" fill="none"/>
    </clipPath>
  </defs>
  <g id="Group_57220" data-name="Group 57220" clip-path="url(#clip-path)">
    <path id="Path_59232" data-name="Path 59232" d="M62.8,122.172H0v-20.66l37.417-31.56a18.6,18.6,0,0,0,4.962-6.506,18.987,18.987,0,0,0,1.707-7.972v-37.9a23.2,23.2,0,0,0-.57-5.126,15.437,15.437,0,0,0-1.788-4.554,9.369,9.369,0,0,0-3.255-3.254,9.83,9.83,0,0,0-5.124-1.22q-5.368,0-7.809,3.5a19.472,19.472,0,0,0-3.172,8.378A47.057,47.057,0,0,0,21.961,25.3q.327,5.124.327,8.54H3.58v-9.6a20.808,20.808,0,0,1,2.6-10.655,25.037,25.037,0,0,1,6.75-7.565A28.161,28.161,0,0,1,22.45,1.464a40.1,40.1,0,0,1,21.474,0A28.17,28.17,0,0,1,53.442,6.02a25.063,25.063,0,0,1,6.75,7.565A20.858,20.858,0,0,1,62.8,24.24V41.158a24.147,24.147,0,0,1-2.277,10.168A23.766,23.766,0,0,1,54.173,59.7L4.555,101.512H62.8Z" transform="translate(0 0)" fill="#d8a03e"/>
    <path id="Path_59233" data-name="Path 59233" d="M148.466,93.866A28.923,28.923,0,0,1,145.7,106.8a28.182,28.182,0,0,1-7.566,9.517,34.082,34.082,0,0,1-10.98,5.937,42.666,42.666,0,0,1-26.029,0,33.1,33.1,0,0,1-10.9-5.937,29.5,29.5,0,0,1-7.564-9.517,28.194,28.194,0,0,1-2.848-12.934V30.583A29.39,29.39,0,0,1,82.583,17.57a27.918,27.918,0,0,1,7.564-9.6,34.1,34.1,0,0,1,10.98-5.937,42.646,42.646,0,0,1,26.029,0,34.14,34.14,0,0,1,10.98,5.937,27.97,27.97,0,0,1,7.566,9.6,29.445,29.445,0,0,1,2.765,13.014Zm-48.315,12.852q0,6.834,3.5,10.493t10.33,3.66q6.831,0,10.492-3.5t3.66-10.656V17.57q0-6.832-3.415-10.492T114.467,3.417q-14.319,0-14.316,14.153Z" transform="translate(0.016)" fill="#d8a03e"/>
    <path id="Path_59234" data-name="Path 59234" d="M4.456,157.792v28.963c2.5,0,4.1-2.049,4.456-4.455l3.565-24.508h4.456L13.368,182.3a11.911,11.911,0,0,1-3.3,6.683,11.914,11.914,0,0,1,3.3,6.684l4.457,24.508H13.368L8.912,195.668c-.445-2.405-1.96-4.455-4.456-4.455v28.963H0V157.792Z" transform="translate(0 0.032)" fill="#161615"/>
    <path id="Path_59235" data-name="Path 59235" d="M34.4,157.791l6.684,62.383H36.626l-2.139-20.051H29.852l-2.139,20.051H23.257l6.683-62.383Zm-4.1,37.876h3.744l-1.872-17.11Z" transform="translate(0.005 0.032)" fill="#161615"/>
    <path id="Path_59236" data-name="Path 59236" d="M57.564,157.792a8.939,8.939,0,0,1,8.913,8.912v15.6a8.769,8.769,0,0,1-4.9,7.932,10.376,10.376,0,0,1,2.049,5.435l2.853,24.509H62.02l-2.852-24.509c-.267-2.405-1.96-4.455-4.456-4.455h-1.6v28.964H48.653V157.792Zm-4.456,28.963h4.456A4.412,4.412,0,0,0,62.02,182.3V166.7a4.412,4.412,0,0,0-4.456-4.455H53.108Z" transform="translate(0.01 0.032)" fill="#161615"/>
    <path id="Path_59237" data-name="Path 59237" d="M79.841,157.792l6.684,46.787,6.684-46.787h4.456v62.383H93.21l.267-36.092-4.724,36.092H84.3l-4.723-36.092.267,36.092H75.386V157.792Z" transform="translate(0.015 0.032)" fill="#161615"/>
    <path id="Path_59238" data-name="Path 59238" d="M116.376,157.791l6.684,62.383h-4.455l-2.139-20.051h-4.634l-2.139,20.051h-4.456l6.683-62.383Zm-4.1,37.876h3.744l-1.872-17.11Z" transform="translate(0.021 0.032)" fill="#161615"/>
    <path id="Path_59239" data-name="Path 59239" d="M135.087,157.792l9.269,45.183L144,157.792h4.457v62.383H144l-9.268-45.183.356,45.183h-4.455V157.792Z" transform="translate(0.026 0.032)" fill="#161615"/>
    <rect id="Rectangle_2238" data-name="Rectangle 2238" width="66.486" height="3.244" transform="translate(0 139.227)" fill="#bababa"/>
    <rect id="Rectangle_2239" data-name="Rectangle 2239" width="74.599" height="3.244" transform="translate(75.401 237.072)" fill="#bababa"/>
  </g>
</svg>
